<?xml version="1.0" encoding="utf-8"?>
<!-- Generator: Adobe Illustrator 17.0.0, SVG Export Plug-In . SVG Version: 6.00 Build 0)  -->
<!DOCTYPE svg PUBLIC "-//W3C//DTD SVG 1.1//EN" "http://www.w3.org/Graphics/SVG/1.1/DTD/svg11.dtd">
<svg version="1.1" id="Layer_1" xmlns="http://www.w3.org/2000/svg" xmlns:xlink="http://www.w3.org/1999/xlink" x="0px" y="0px"
	 width="374.775px" height="175.676px" viewBox="0 0 374.775 175.676" enable-background="new 0 0 374.775 175.676"
	 xml:space="preserve">
<g>
	<path d="M59.414,128.027H11.21V62.782h16.068v51.223h32.136V128.027z"/>
	<path d="M116.58,128.027l-4.577-11.88H84.541l-4.577,11.88H62.728l27.267-65.246h16.457l27.267,65.246H116.58z M98.272,80.894
		l-8.277,21.424h16.652L98.272,80.894z"/>
	<path d="M180.174,128.027l-21.327-24.54h-3.408v24.54h-16.068V62.782h16.068v25.903h2.337l22.203-25.903h19.281l-27.753,32.72
		l29.702,32.525H180.174z"/>
	<path d="M254.771,128.027l-4.576-11.88h-27.462l-4.577,11.88H200.92l27.267-65.246h16.458l27.267,65.246H254.771z M236.464,80.894
		l-8.277,21.424h16.652L236.464,80.894z"/>
	<path d="M317.975,128.027l-19.671-22.398h-4.675v22.398h-16.067V62.782h33.012c14.121,0,23.47,8.569,23.47,21.327
		c0,10.712-6.622,18.405-17.14,20.742l20.45,23.177H317.975z M308.821,92.191c5.746,0,9.446-3.116,9.446-7.888
		c0-4.674-3.7-7.791-9.446-7.791H293.63v15.678H308.821z"/>
	<path d="M343.688,128.027V62.782h16.067v65.246H343.688z"/>
</g>
<g>
	<path d="M94.466,58.705l7.144-13.958h9.831h-0.054l-7.331,13.958H94.466z"/>
</g>
<g>
	<path d="M25.92,164.974v-11.641H8.484v11.641h-1.8v-23.916h1.8v10.652H25.92v-10.652h1.8v23.916H25.92z"/>
	<path d="M51.88,161.94c-2.271,2.188-5.371,3.281-9.301,3.281c-3.953,0-7.053-1.082-9.3-3.246c-2.248-2.163-3.371-5.149-3.371-8.959
		c0-3.763,1.129-6.679,3.388-8.748c2.259-2.069,5.353-3.104,9.283-3.104s7.03,1.035,9.301,3.104
		c2.271,2.069,3.406,4.985,3.406,8.748S54.15,159.754,51.88,161.94z M50.609,145.485c-1.918-1.775-4.595-2.663-8.03-2.663
		c-3.412,0-6.077,0.888-7.994,2.663c-1.918,1.775-2.877,4.286-2.877,7.531s0.965,5.814,2.895,7.707
		c1.929,1.894,4.588,2.84,7.977,2.84c3.436,0,6.112-0.935,8.03-2.805c1.917-1.869,2.876-4.45,2.876-7.742
		C53.486,149.771,52.527,147.261,50.609,145.485z"/>
	<path d="M81.511,164.974v-20.53l-10.413,20.53h-1.447l-10.447-20.53v20.53h-1.8v-23.916h2.047l10.906,21.481l10.942-21.481h2.012
		v23.916H81.511z"/>
	<path d="M86.31,164.974v-23.916h18.213v1.658H88.075v8.994h14.578v1.623H88.075v9.982h16.625v1.658H86.31z"/>
	<path d="M138.83,162.999c-2.165,1.481-4.765,2.223-7.8,2.223c-4,0-7.165-1.035-9.495-3.104c-2.424-2.14-3.636-5.15-3.636-9.03
		c0-3.786,1.159-6.778,3.477-8.978c2.317-2.198,5.453-3.298,9.406-3.298c2.941,0,5.388,0.588,7.341,1.764
		c2.212,1.341,3.647,3.563,4.306,6.667h-1.835c-1.036-4.516-4.294-6.772-9.777-6.772c-3.436,0-6.147,0.94-8.136,2.821
		c-1.989,1.882-2.982,4.469-2.982,7.761c0,3.363,1.006,5.956,3.018,7.778c2.012,1.822,4.782,2.733,8.312,2.733
		c2.706,0,5-0.693,6.883-2.081c2.023-1.481,3.035-3.445,3.035-5.891v-0.636h-10.271v-1.657h12c0.071,0.775,0.106,1.399,0.106,1.869
		C142.783,158.578,141.465,161.188,138.83,162.999z"/>
	<path d="M166.661,161.94c-2.271,2.188-5.371,3.281-9.301,3.281c-3.953,0-7.053-1.082-9.3-3.246
		c-2.248-2.163-3.371-5.149-3.371-8.959c0-3.763,1.129-6.679,3.388-8.748c2.259-2.069,5.353-3.104,9.283-3.104
		s7.03,1.035,9.301,3.104c2.271,2.069,3.406,4.985,3.406,8.748S168.931,159.754,166.661,161.94z M165.39,145.485
		c-1.918-1.775-4.595-2.663-8.03-2.663c-3.412,0-6.077,0.888-7.994,2.663c-1.918,1.775-2.877,4.286-2.877,7.531
		s0.965,5.814,2.895,7.707c1.929,1.894,4.588,2.84,7.977,2.84c3.436,0,6.112-0.935,8.03-2.805c1.917-1.869,2.876-4.45,2.876-7.742
		C168.267,149.771,167.308,147.261,165.39,145.485z"/>
	<path d="M193.379,161.94c-2.271,2.188-5.371,3.281-9.3,3.281c-3.953,0-7.053-1.082-9.3-3.246c-2.248-2.163-3.371-5.149-3.371-8.959
		c0-3.763,1.129-6.679,3.388-8.748c2.259-2.069,5.353-3.104,9.283-3.104s7.029,1.035,9.3,3.104s3.406,4.985,3.406,8.748
		S195.65,159.754,193.379,161.94z M192.109,145.485c-1.918-1.775-4.595-2.663-8.031-2.663c-3.412,0-6.077,0.888-7.994,2.663
		c-1.918,1.775-2.877,4.286-2.877,7.531s0.965,5.814,2.895,7.707c1.929,1.894,4.588,2.84,7.977,2.84
		c3.436,0,6.113-0.935,8.031-2.805c1.916-1.869,2.875-4.45,2.875-7.742C194.984,149.771,194.025,147.261,192.109,145.485z"/>
	<path d="M207.198,164.974h-8.295v-23.916h9.636c3.93,0,6.918,1.07,8.965,3.21c1.953,2.069,2.93,4.997,2.93,8.783
		c0,3.903-1.247,6.902-3.741,8.995C214.363,163.999,211.198,164.974,207.198,164.974z M216.198,145.468
		c-1.718-1.834-4.283-2.751-7.694-2.751h-7.801v20.6h6.601c3.576,0,6.358-0.87,8.348-2.61c1.988-1.74,2.982-4.291,2.982-7.654
		C218.634,149.713,217.822,147.184,216.198,145.468z"/>
	<path d="M233.069,165.221c-3.083,0-5.554-0.553-7.412-1.658c-2.329-1.341-3.494-3.444-3.494-6.314v-0.847h1.8v0.706
		c0,4.304,3.047,6.455,9.142,6.455c2.095,0,3.848-0.317,5.26-0.952c1.812-0.823,2.718-2.093,2.718-3.81
		c0-1.199-0.33-2.117-0.988-2.752c-0.542-0.517-1.471-0.976-2.789-1.376c-0.705-0.188-2.377-0.563-5.012-1.128
		c-3.035-0.636-5.083-1.223-6.142-1.764c-2.142-1.082-3.212-2.692-3.212-4.833c0-4.092,3.153-6.138,9.46-6.138
		c6.588,0,9.918,2.563,9.988,7.689h-1.765c-0.142-2.469-0.988-4.127-2.541-4.974c-1.271-0.705-3.165-1.058-5.683-1.058
		c-5.106,0-7.66,1.493-7.66,4.479c0,1.458,0.694,2.552,2.083,3.28c0.965,0.494,2.6,0.953,4.906,1.376
		c4.282,0.753,7.142,1.564,8.577,2.434c1.717,1.035,2.576,2.658,2.576,4.868c0,2.211-1.142,3.88-3.424,5.009
		C237.693,164.786,235.563,165.221,233.069,165.221z"/>
	<path d="M268.224,165.221c-3.083,0-5.554-0.553-7.412-1.658c-2.329-1.341-3.494-3.444-3.494-6.314v-0.847h1.8v0.706
		c0,4.304,3.047,6.455,9.142,6.455c2.095,0,3.848-0.317,5.26-0.952c1.812-0.823,2.718-2.093,2.718-3.81
		c0-1.199-0.33-2.117-0.988-2.752c-0.542-0.517-1.471-0.976-2.789-1.376c-0.705-0.188-2.377-0.563-5.012-1.128
		c-3.035-0.636-5.083-1.223-6.142-1.764c-2.142-1.082-3.212-2.692-3.212-4.833c0-4.092,3.153-6.138,9.46-6.138
		c6.588,0,9.918,2.563,9.988,7.689h-1.765c-0.142-2.469-0.988-4.127-2.541-4.974c-1.271-0.705-3.165-1.058-5.683-1.058
		c-5.106,0-7.66,1.493-7.66,4.479c0,1.458,0.694,2.552,2.083,3.28c0.965,0.494,2.6,0.953,4.906,1.376
		c4.282,0.753,7.142,1.564,8.577,2.434c1.717,1.035,2.576,2.658,2.576,4.868c0,2.211-1.142,3.88-3.424,5.009
		C272.848,164.786,270.718,165.221,268.224,165.221z"/>
	<path d="M289.754,142.717v22.258h-1.801v-22.258h-9.142v-1.658h20.084v1.658H289.754z"/>
	<path d="M321.149,161.94c-2.271,2.188-5.371,3.281-9.301,3.281c-3.953,0-7.054-1.082-9.3-3.246
		c-2.248-2.163-3.371-5.149-3.371-8.959c0-3.763,1.129-6.679,3.389-8.748c2.259-2.069,5.353-3.104,9.282-3.104
		s7.029,1.035,9.301,3.104c2.271,2.069,3.406,4.985,3.406,8.748S323.42,159.754,321.149,161.94z M319.879,145.485
		c-1.918-1.775-4.595-2.663-8.03-2.663c-3.412,0-6.077,0.888-7.994,2.663c-1.918,1.775-2.877,4.286-2.877,7.531
		s0.965,5.814,2.895,7.707c1.929,1.894,4.588,2.84,7.977,2.84c3.436,0,6.112-0.935,8.03-2.805c1.917-1.869,2.876-4.45,2.876-7.742
		C322.755,149.771,321.796,147.261,319.879,145.485z"/>
	<path d="M342.556,153.299c2.471,0.964,3.706,2.834,3.706,5.608v6.067h-1.8v-5.997c0-3.127-2.188-4.691-6.564-4.691h-9.425v10.688
		h-1.8v-23.916h11.542c5.6,0,8.4,2.093,8.4,6.278C346.615,150.254,345.262,152.24,342.556,153.299z M338.285,142.717h-9.813v9.841
		h9.248c2.023,0,3.646-0.376,4.871-1.129c1.482-0.893,2.224-2.222,2.224-3.985C344.815,144.292,342.639,142.717,338.285,142.717z"/>
	<path d="M349.333,164.974v-23.916h18.213v1.658h-16.448v8.994h14.577v1.623h-14.577v9.982h16.625v1.658H349.333z"/>
</g>
<polygon points="258.83,25.114 258.83,8.478 243.046,8.478 243.046,22.501 185.795,13.022 6.663,43.156 6.663,50.69 185.795,20.555 
	367.798,50.69 367.798,43.156 "/>
<rect x="-118.604" y="-275.568" fill="none" stroke="#000000" stroke-miterlimit="10" width="612" height="792"/>
</svg>
